<svg xmlns="http://www.w3.org/2000/svg" xmlns:xlink="http://www.w3.org/1999/xlink" width="135" height="20" viewBox="0 0 135 20"><defs><path id="vaxga" d="M867.53 28.94s-.66-.13-.75.31c-.1.44.09.63.21.76s2.67.1 2.74.03a1 1 0 0 0 .23-.5c.04-.2.06-.43.06-.68 0-.35-.03-.74-.07-1.08 0-.1-.04-.33-.1-.41a.9.9 0 0 0-.4-.32c-.27-.11-1.36-.17-1.71-.23-.36-.06-.73-.11-1.06-.2-.24-.06-.43-.35-.59-.49a2.3 2.3 0 0 1-.5-.65c-.06-.1-.1-.2-.15-.26a.51.51 0 0 0-.07-.1.19.19 0 0 0-.04-.03.13.13 0 0 0-.07-.01.1.1 0 0 0-.06.02.14.14 0 0 0-.03.04.29.29 0 0 0-.03.07l-.03.2c-.02.27-.03.69-.1 1.03-.03.18-.08.33-.14.43a.35.35 0 0 1-.1.12.2.2 0 0 1-.12.04 21.09 21.09 0 0 1-2.83-.36 7.7 7.7 0 0 1-1.16-.36.74.74 0 0 1-.19-.12c-.1-.1-.2-.26-.3-.47a8.42 8.42 0 0 1-.48-1.4c-.21-.83-.54-1.6-.66-2.42-.12-.82.46-.89.46-.89s3.55.06 3.7 0c.13-.05.61.02.68-.1.07-.13.11-.44.11-.63v-3.76c0-.48.46-.54.58-.54.15 0 .76 0 .97.02.2.03.4.08.55.15.15.07.28.18.37.3.15.2.24.42.28.6.08.28 3.15.82 3.15.82l.55.07c1.33.12 1.33.65 1.4 1.65.08.94.22 2.69.22 4.56 0 1.7.05 4.3-.34 5.67-.2.69-.46 1.26-.81 1.66-.18.2-.35.4-.59.46-1.07.31-3.93.1-4.36 0a1.8 1.8 0 0 1-.44-.13c-.09-.04-.13-.08-.18-.12a.42.42 0 0 1-.1-.14 1.99 1.99 0 0 1-.14-.52 5.46 5.46 0 0 1-.07-.92c0-.17 0-.5.02-.7.01-.28.1-.73.23-.9.19-.24.48-.39.79-.47.3-.08 1.9 0 1.9 0v.93zm-4.59-12.97l.03 3.2s.05.81-.67.81l-3.3-.02zm6.93 6.5s-.45-1.37-1.35-1.43c-.9-.06-2 1.74-1.23 1.86.78.12.48-.18 1.08-.21.6-.03.84.18 1.29.2.45.04.2-.26.2-.41z"/><path id="vaxgb" d="M882.46 23.34c0 1.59 1.36 2.4 2.86 2.7-.27.08-.38.34-1.41.25.41 1.3 1.59 1.74 3.02 1.77-1.12.88-2.56 1.15-4.1 1.15a6.6 6.6 0 0 1-.77-.04c1.44.92 3.16 1.84 5.01 1.84 6.02 0 8.94-4.47 8.94-8.8l-.01-.41c.64-.47 1.61-1.1 2.05-1.76-.58.26-1.27.01-1.93.1.68-.41 1.49-.92 1.6-2.11-.63.37-1.5.88-2.24 1.02a3.39 3.39 0 0 0-2.39-1.15c-1.8 0-3 1.67-3 3.48 0 .26 0 .41.05.65-2.71-.14-5.6-1.03-7.21-3a3.25 3.25 0 0 0-.45 1.64c0 1.13.87 2.13 1.75 2.72-.53-.02-.43.33-1.77-.05z"/><path id="vaxgc" d="M931.43 16.05h9.14a3.42 3.42 0 0 1 3.43 3.42v9.1a3.42 3.42 0 0 1-3.43 3.43h-9.14a3.42 3.42 0 0 1-3.42-3.42v-9.11a3.42 3.42 0 0 1 3.42-3.42zm-.59 4.97c0 .56.51 1.01 1.14 1.01.63 0 1.14-.45 1.14-1.01 0-.57-.5-1.02-1.14-1.02-.63 0-1.14.45-1.14 1.02zM931 29h2v-6.03h-2zm3.06-.03h1.88v-3.99c.06-.56.3-1.01 1.06-1.01 1.31 0 1 1.15 1 1.15v3.82h2V25.3c0-1.78-.38-2.72-2.06-2.72-1 0-1.64.62-2 1.12v-.8h-1.88z"/><path id="vaxgd" d="M953 16h12a2 2 0 0 1 2 2v12a2 2 0 0 1-2 2h-12a2 2 0 0 1-2-2V18c0-1.1.9-2 2-2zm10.98 5l-.01-1.98c-.7 0-.5-.04-1.24-.04-.71 0-1.12.12-1.6.35-.46.22-.67.5-.85.87-.17.36-.26.8-.26 1.54V22h-1l-.04 1.96h1.01v5.03h2v-5.03h1.82l.25-1.96h-2.03s-.17-.6.15-.9c.16-.16 1.8-.1 1.8-.1z"/><path id="vaxge" d="M976 16h12a2 2 0 0 1 2 2v12a2 2 0 0 1-2 2h-12a2 2 0 0 1-2-2V18c0-1.1.9-2 2-2zm0 2.97V23a1 1 0 0 0 1 1h4a1 1 0 0 0 1-1v-4.03a1 1 0 0 0-1-1h-4a1 1 0 0 0-1 1zm6 6.03v4a1 1 0 0 0 1 1h4a1 1 0 0 0 1-1v-4a1 1 0 0 0-1-1h-4a1 1 0 0 0-1 1z"/><path id="vaxgf" d="M913 16.04a8 8 0 1 1-2.25 15.67 6.8 6.8 0 0 0 .97-2.13l.37-1.8s.72.93 1.9.93 4.15-.74 4.38-4.9c.23-4.17-3.43-5.2-5.17-5.2-1.73 0-5.04 1.08-5.44 4.05-.39 2.97.99 3.76 1.33 4 .34.26.52-.03.52-.03l.37-1.02s-1.4-.84-.5-3.18c.9-2.35 3.42-2.4 3.69-2.4.26 0 3.3-.09 3.27 3.19-.04 3.27-1.65 4.15-2.45 4.16-.8.02-1.24-.44-1.33-.93-.08-.48.13-1.14.58-2.54.44-1.4-.22-2.2-.95-2.2s-1.4.74-1.52 1.7c-.13.97.27 1.63.27 1.63s-.93 3.8-1.1 4.58a7.62 7.62 0 0 0-.04 1.8 8 8 0 0 1 3.1-15.38z"/></defs><g><g transform="translate(-857 -14)"><use fill="#fff" xlink:href="#vaxga"/><use fill="#d4d4d4" xlink:href="#vaxga"/></g><g transform="translate(-857 -14)"><use fill="#fff" xlink:href="#vaxgb"/><use fill="#d4d4d4" xlink:href="#vaxgb"/></g><g transform="translate(-857 -14)"><use fill="#fff" xlink:href="#vaxgc"/><use fill="#d4d4d4" xlink:href="#vaxgc"/></g><g transform="translate(-857 -14)"><use fill="#fff" xlink:href="#vaxgd"/><use fill="#d4d4d4" xlink:href="#vaxgd"/></g><g transform="translate(-857 -14)"><use fill="#fff" xlink:href="#vaxge"/><use fill="#d4d4d4" xlink:href="#vaxge"/></g><g transform="translate(-857 -14)"><use fill="#fff" xlink:href="#vaxgf"/><use fill="#d4d4d4" xlink:href="#vaxgf"/></g></g></svg>