<svg xmlns="http://www.w3.org/2000/svg" xmlns:xlink="http://www.w3.org/1999/xlink" width="28" height="40" viewBox="0 0 28 40"><defs><path id="2cv5a" d="M255.02 1219.27c6.06 0 10.98 4.92 10.98 10.99s-10.98 22.68-10.98 22.68-11-16.61-11-22.68 4.93-10.99 11-10.99zm-4.04 11.74a3.97 3.97 0 1 0 7.94 0 3.97 3.97 0 0 0-7.94 0z"/><path id="2cv5b" d="M243 1254v-36h24v36zm1.03-23.74c0 6.07 10.99 22.68 10.99 22.68s10.98-16.61 10.98-22.68a10.99 10.99 0 0 0-21.97 0zm10.92-3.22a3.97 3.97 0 1 1 0 7.95 3.97 3.97 0 0 1 0-7.95z"/><path id="2cv5c" d="M244 1253v-34h22v11a10.99 10.99 0 0 0-21.97.26c0 6.07 10.99 22.68 10.99 22.68s10.78-16.3 10.98-22.51V1253zm22-22.74v-.25V1230.26zm-11.05-3.22a3.97 3.97 0 1 1 0 7.95 3.97 3.97 0 0 1 0-7.95z"/><path id="2cv5i" d="M244 1254v-36h22v13a10.99 10.99 0 0 0-21.97.26c0 6.07 10.99 22.68 10.99 22.68s10.78-16.3 10.98-22.51V1254zm22-22.74v-.25V1231.26zm-11.05-3.22a3.97 3.97 0 1 1 0 7.95 3.97 3.97 0 0 1 0-7.95z"/><mask id="2cv5g" width="2" height="2" x="-1" y="-1"><path fill="#fff" d="M244 1219h22v34h-22z"/><use xlink:href="#2cv5a"/></mask><filter id="2cv5f" width="48" height="60" x="231" y="1206" filterUnits="userSpaceOnUse"><feOffset in="SourceGraphic" result="FeOffset1023Out"/><feGaussianBlur in="FeOffset1023Out" result="FeGaussianBlur1024Out" stdDeviation="1.2 1.2"/></filter><linearGradient id="2cv5h" x1="255" x2="255.03" y1="1252.94" y2="1219.27" gradientUnits="userSpaceOnUse"><stop offset="0" stop-opacity=".2"/><stop offset=".5" stop-color="#fff" stop-opacity=".2"/><stop offset="1" stop-color="#fff" stop-opacity=".2"/></linearGradient><filter id="2cv5d" width="200%" height="200%" x="-50%" y="-50%"><feGaussianBlur in="SourceGraphic" result="FeGaussianBlur1046Out" stdDeviation="0 0"/></filter><mask id="2cv5e"><use fill="#fff" xlink:href="#2cv5a"/></mask><filter id="2cv5j" width="200%" height="200%" x="-50%" y="-50%"><feGaussianBlur in="SourceGraphic" result="FeGaussianBlur1053Out" stdDeviation="0 0"/></filter><mask id="2cv5k"><use fill="#fff" xlink:href="#2cv5a"/></mask><clipPath id="2cv5l"><use fill="#fff" xlink:href="#2cv5b"/></clipPath></defs><g><g transform="translate(-241 -1216)"><use fill="#fff" fill-opacity=".38" stroke="#fff" stroke-opacity=".38" stroke-width="0" filter="url(#2cv5d)" mask="url(&quot;#2cv5e&quot;)" xlink:href="#2cv5c"/><g filter="url(#2cv5f)"><use fill="none" stroke-width="0" mask="url(&quot;#2cv5g&quot;)" xlink:href="#2cv5a"/><use xlink:href="#2cv5a"/></g><use fill="#23aded" xlink:href="#2cv5a"/><use fill="url(#2cv5h)" xlink:href="#2cv5a"/><use fill="#fff" fill-opacity=".38" stroke="#fff" stroke-opacity=".38" stroke-width="0" filter="url(#2cv5d)" mask="url(&quot;#2cv5e&quot;)" xlink:href="#2cv5c"/><use fill="#fff" fill-opacity=".55" stroke="#fff" stroke-opacity=".55" stroke-width="0" filter="url(#2cv5j)" mask="url(&quot;#2cv5k&quot;)" xlink:href="#2cv5i"/><use fill="#fff" fill-opacity="0" stroke="#0f4858" stroke-linecap="round" stroke-linejoin="round" stroke-miterlimit="50" stroke-width="2" clip-path="url(&quot;#2cv5l&quot;)" xlink:href="#2cv5a"/></g></g></svg>